<svg version="1.1" viewBox="0.0 0.0 586.2992125984252 394.8005249343832" fill="none" stroke="none" stroke-linecap="square" stroke-miterlimit="10" xmlns:xlink="http://www.w3.org/1999/xlink" xmlns="http://www.w3.org/2000/svg"><clipPath id="p.0"><path d="m0 0l586.2992 0l0 394.80054l-586.2992 0l0 -394.80054z" clip-rule="nonzero"/></clipPath><g clip-path="url(#p.0)"><path fill="#000000" fill-opacity="0.0" d="m0 0l586.2992 0l0 394.80054l-586.2992 0z" fill-rule="evenodd"/><path fill="#000000" fill-opacity="0.0" d="m297.2728 53.648293l0 33.517174l118.23624 0l0 33.506447" fill-rule="evenodd"/><path stroke="#c2c2c2" stroke-width="2.0" stroke-miterlimit="8.0" stroke-linecap="butt" d="m297.2728 53.648293l0 33.517174l118.23624 0l0 33.506447" fill-rule="evenodd"/><path fill="#000000" fill-opacity="0.0" d="m179.07846 120.67232l0 -33.517174l118.20474 0l0 -33.50645" fill-rule="evenodd"/><path stroke="#c2c2c2" stroke-width="2.0" stroke-miterlimit="8.0" stroke-linecap="butt" d="m179.07846 120.67232l0 -33.517174l118.20474 0l0 -33.50645" fill-rule="evenodd"/><path fill="#000000" fill-opacity="0.0" d="m179.07846 158.59357l0 35.480316l56.44095 0l0 35.480316" fill-rule="evenodd"/><path stroke="#c2c2c2" stroke-width="2.0" stroke-miterlimit="8.0" stroke-linecap="butt" d="m179.07846 158.59357l0 35.480316l56.44095 0l0 35.480316" fill-rule="evenodd"/><path fill="#000000" fill-opacity="0.0" d="m122.63704 229.55006l0 -35.480316l56.44095 0l0 -35.480316" fill-rule="evenodd"/><path stroke="#c2c2c2" stroke-width="2.0" stroke-miterlimit="8.0" stroke-linecap="butt" d="m122.63704 229.55006l0 -35.480316l56.44095 0l0 -35.480316" fill-rule="evenodd"/><path fill="#000000" fill-opacity="0.0" d="m415.50143 158.59357l0 35.480316l56.44095 0l0 35.480316" fill-rule="evenodd"/><path stroke="#c2c2c2" stroke-width="2.0" stroke-miterlimit="8.0" stroke-linecap="butt" d="m415.50143 158.59357l0 35.480316l56.44095 0l0 35.480316" fill-rule="evenodd"/><path fill="#000000" fill-opacity="0.0" d="m359.06 229.55006l0 -35.480316l56.44095 0l0 -35.480316" fill-rule="evenodd"/><path stroke="#c2c2c2" stroke-width="2.0" stroke-miterlimit="8.0" stroke-linecap="butt" d="m359.06 229.55006l0 -35.480316l56.44095 0l0 -35.480316" fill-rule="evenodd"/><path fill="#000000" fill-opacity="0.0" d="m71.34646 338.42783l0 -35.480316l51.27559 0l0 -35.480316" fill-rule="evenodd"/><path stroke="#c2c2c2" stroke-width="2.0" stroke-miterlimit="8.0" stroke-linecap="butt" d="m71.34646 338.42783l0 -35.480316l51.27559 0l0 -35.480316" fill-rule="evenodd"/><path fill="#000000" fill-opacity="0.0" d="m184.22931 338.42783l0 -35.480316l-61.6063 0l0 -35.480316" fill-rule="evenodd"/><path stroke="#c2c2c2" stroke-width="2.0" stroke-miterlimit="8.0" stroke-linecap="butt" d="m184.22931 338.42783l0 -35.480316l-61.6063 0l0 -35.480316" fill-rule="evenodd"/><path fill="#000000" fill-opacity="0.0" d="m297.46774 338.42783l0 -35.480316l61.606293 0l0 -35.480316" fill-rule="evenodd"/><path stroke="#c2c2c2" stroke-width="2.0" stroke-miterlimit="8.0" stroke-linecap="butt" d="m297.46774 338.42783l0 -35.480316l61.606293 0l0 -35.480316" fill-rule="evenodd"/><path fill="#000000" fill-opacity="0.0" d="m410.3506 338.42783l0 -35.480316l-51.275604 0l0 -35.480316" fill-rule="evenodd"/><path stroke="#c2c2c2" stroke-width="2.0" stroke-miterlimit="8.0" stroke-linecap="butt" d="m410.3506 338.42783l0 -35.480316l-51.275604 0l0 -35.480316" fill-rule="evenodd"/><path fill="#000000" fill-opacity="0.0" d="m523.23346 338.42783l0 -35.480316l-164.189 0l0 -35.480316" fill-rule="evenodd"/><path stroke="#c2c2c2" stroke-width="2.0" stroke-miterlimit="8.0" stroke-linecap="butt" d="m523.23346 338.42783l0 -35.480316l-164.189 0l0 -35.480316" fill-rule="evenodd"/><path fill="#000000" fill-opacity="0.0" d="m245.83974 15.727035l102.866135 0l0 37.921257l-102.866135 0z" fill-rule="evenodd"/><path stroke="#a72a1e" stroke-width="2.0" stroke-linejoin="round" stroke-linecap="butt" d="m245.83974 15.727035l102.866135 0l0 37.921257l-102.866135 0z" fill-rule="evenodd"/><path fill="#a72a1e" d="m286.4848 34.97204q0 1.390625 -0.5 2.453125q-0.484375 1.046875 -1.40625 1.625q-0.921875 0.5625 -2.109375 0.5625q-1.1875 0 -2.109375 -0.5625q-0.921875 -0.5625 -1.4375 -1.609375q-0.5 -1.0625 -0.5 -2.421875l0 -0.46875q0 -1.40625 0.5 -2.46875q0.5 -1.0625019 1.421875 -1.6250019q0.921875 -0.578125 2.109375 -0.578125q1.1875 0 2.109375 0.578125q0.921875 0.5625 1.421875 1.6250019q0.5 1.0625 0.5 2.453125l0 0.4375zm-1.96875 -0.4375q0 -1.484375 -0.546875 -2.25q-0.53125 -0.7812519 -1.515625 -0.7812519q-0.984375 0 -1.515625 0.7656269q-0.53125 0.75 -0.546875 2.234375l0 0.46875q0 1.4375 0.53125 2.25q0.546875 0.796875 1.546875 0.796875q0.984375 0 1.5 -0.765625q0.53125 -0.78125 0.546875 -2.25l0 -0.46875zm9.608398 1.5q0 1.6875 -0.71875 2.640625q-0.71875 0.9375 -2.015625 0.9375q-1.140625 0 -1.828125 -0.875l-0.078125 0.75l-1.703125 0l0 -10.000002l1.890625 0l0 3.593752q0.640625 -0.765625 1.703125 -0.765625q1.296875 0 2.015625 0.953125q0.734375 0.9375 0.734375 2.65625l0 0.109375zm-1.875 -0.140625q0 -1.0625 -0.34375 -1.546875q-0.328125 -0.5 -1.0 -0.5q-0.90625 0 -1.234375 0.734375l0 2.78125q0.34375 0.734375 1.25 0.734375q0.90625 0 1.1875 -0.890625q0.140625 -0.4375 0.140625 -1.3125zm5.0348206 -3.453125l0 7.4375q0 1.15625 -0.625 1.796875q-0.609375 0.65625 -1.78125 0.65625q-0.484375 0 -0.9375 -0.109375l0 -1.484375q0.34375 0.046875 0.59375 0.046875q0.859375 0 0.859375 -0.90625l0 -7.4375l1.890625 0zm-2.046875 -1.8125019q0 -0.421875 0.28125 -0.6875q0.296875 -0.28125 0.78125 -0.28125q0.484375 0 0.765625 0.28125q0.28125 0.265625 0.28125 0.6875q0 0.421875 -0.296875 0.703125q-0.28125 0.265625 -0.765625 0.265625q-0.46875 0 -0.765625 -0.265625q-0.28125 -0.28125 -0.28125 -0.703125zm6.7590637 8.984377q-1.546875 0 -2.53125 -0.9375q-0.96875 -0.953125 -0.96875 -2.53125l0 -0.1875q0 -1.0625 0.40625 -1.890625q0.40625 -0.84375 1.15625 -1.296875q0.765625 -0.453125 1.71875 -0.453125q1.453125 0 2.28125 0.921875q0.828125 0.90625 0.828125 2.578125l0 0.765625l-4.484375 0q0.09375 0.6875 0.546875 1.109375q0.46875 0.40625 1.171875 0.40625q1.078125 0 1.6875 -0.78125l0.921875 1.03125q-0.421875 0.59375 -1.140625 0.9375q-0.71875 0.328125 -1.59375 0.328125zm-0.21875 -5.78125q-0.5625 0 -0.90625 0.390625q-0.34375 0.375 -0.453125 1.078125l2.625 0l0 -0.15625q-0.015625 -0.625 -0.34375 -0.96875q-0.328125 -0.34375 -0.921875 -0.34375zm7.1104736 4.265625q0.515625 0 0.84375 -0.28125q0.32815552 -0.28125 0.32815552 -0.765625l1.765625 0q0 0.71875 -0.390625 1.3125q-0.375 0.59375 -1.046875 0.921875q-0.6719055 0.328125 -1.4687805 0.328125q-1.515625 0 -2.390625 -0.953125q-0.875 -0.96875 -0.875 -2.65625l0 -0.125q0 -1.625 0.859375 -2.59375q0.875 -0.96875 2.390625 -0.96875q1.3125305 0 2.1094055 0.75q0.8125 0.75 0.8125 2.0l-1.765625 0q0 -0.546875 -0.32815552 -0.890625q-0.328125 -0.34375 -0.859375 -0.34375q-0.65625 0 -1.0 0.484375q-0.328125 0.484375 -0.328125 1.546875l0 0.203125q0 1.078125 0.328125 1.5625q0.328125 0.46875 1.015625 0.46875zm6.2629395 -7.375002l0 1.7187519l1.203125 0l0 1.390625l-1.203125 0l0 3.515625q0 0.390625 0.15625 0.5625q0.15625 0.15625 0.578125 0.15625q0.3125 0 0.546875 -0.046875l0 1.4375q-0.546875 0.15625 -1.140625 0.15625q-1.984375 0 -2.015625 -2.0l0 -3.78125l-1.03125 0l0 -1.390625l1.03125 0l0 -1.7187519l1.875 0z" fill-rule="nonzero"/><path fill="#000000" fill-opacity="0.0" d="m127.70839 120.67232l102.74016 0l0 37.92125l-102.74016 0z" fill-rule="evenodd"/><path stroke="#a72a1e" stroke-width="2.0" stroke-linejoin="round" stroke-linecap="butt" d="m127.70839 120.67232l102.74016 0l0 37.92125l-102.74016 0z" fill-rule="evenodd"/><path fill="#a72a1e" d="m157.59886 141.94856q0 -0.5625 -0.390625 -0.84375q-0.390625 -0.296875 -1.40625 -0.625q-1.015625 -0.328125 -1.609375 -0.65625q-1.625 -0.875 -1.625 -2.34375q0 -0.765625 0.4375 -1.359375q0.4375 -0.609375 1.25 -0.953125q0.8125 -0.34375 1.8125 -0.34375q1.015625 0 1.8125 0.375q0.796875 0.359375 1.234375 1.03125q0.4375 0.671875 0.4375 1.53125l-1.953125 0q0 -0.65625 -0.40625 -1.015625q-0.40625 -0.359375 -1.15625 -0.359375q-0.71875 0 -1.125 0.3125q-0.390625 0.296875 -0.390625 0.78125q0 0.46875 0.46875 0.78125q0.46875 0.3125 1.375 0.578125q1.671875 0.5 2.421875 1.25q0.765625 0.734375 0.765625 1.84375q0 1.234375 -0.9375 1.9375q-0.921875 0.6875 -2.5 0.6875q-1.09375 0 -2.0 -0.390625q-0.890625 -0.40625 -1.359375 -1.09375q-0.46875 -0.703125 -0.46875 -1.625l1.953125 0q0 1.578125 1.875 1.578125q0.703125 0 1.09375 -0.28125q0.390625 -0.296875 0.390625 -0.796875zm7.3652954 1.765625q-0.6875 0.84375 -1.921875 0.84375q-1.140625 0 -1.734375 -0.640625q-0.59375 -0.65625 -0.609375 -1.90625l0 -4.625l1.890625 0l0 4.546875q0 1.109375 1.0 1.109375q0.953125 0 1.3125 -0.671875l0 -4.984375l1.890625 0l0 7.046875l-1.78125 0l-0.046875 -0.71875zm9.583023 -2.734375q0 1.6875 -0.71875 2.640625q-0.71875 0.9375 -2.015625 0.9375q-1.140625 0 -1.828125 -0.875l-0.078125 0.75l-1.703125 0l0 -10.0l1.890625 0l0 3.59375q0.640625 -0.765625 1.703125 -0.765625q1.296875 0 2.015625 0.953125q0.734375 0.9375 0.734375 2.65625l0 0.109375zm-1.875 -0.140625q0 -1.0625 -0.34375 -1.546875q-0.328125 -0.5 -1.0 -0.5q-0.90625 0 -1.234375 0.734375l0 2.78125q0.34375 0.734375 1.25 0.734375q0.90625 0 1.1875 -0.890625q0.140625 -0.4375 0.140625 -1.3125zm5.972336 2.203125q0.515625 0 0.84375 -0.28125q0.328125 -0.28125 0.328125 -0.765625l1.765625 0q0 0.71875 -0.390625 1.3125q-0.375 0.59375 -1.046875 0.921875q-0.671875 0.328125 -1.46875 0.328125q-1.515625 0 -2.390625 -0.953125q-0.875 -0.96875 -0.875 -2.65625l0 -0.125q0 -1.625 0.859375 -2.59375q0.875 -0.96875 2.390625 -0.96875q1.3125 0 2.109375 0.75q0.8125 0.75 0.8125 2.0l-1.765625 0q0 -0.546875 -0.328125 -0.890625q-0.328125 -0.34375 -0.859375 -0.34375q-0.65625 0 -1.0 0.484375q-0.328125 0.484375 -0.328125 1.546875l0 0.203125q0 1.078125 0.328125 1.5625q0.328125 0.46875 1.015625 0.46875zm5.997284 1.390625l-1.890625 0l0 -10.0l1.890625 0l0 10.0zm5.627533 0q-0.125 -0.25 -0.1875 -0.625q-0.671875 0.75 -1.765625 0.75q-1.046875 0 -1.734375 -0.59375q-0.671875 -0.59375 -0.671875 -1.515625q0 -1.109375 0.828125 -1.703125q0.84375 -0.609375 2.40625 -0.609375l0.859375 0l0 -0.40625q0 -0.484375 -0.25 -0.78125q-0.25 -0.296875 -0.78125 -0.296875q-0.484375 0 -0.75 0.234375q-0.265625 0.21875 -0.265625 0.625l-1.890625 0q0 -0.609375 0.375 -1.125q0.390625 -0.53125 1.078125 -0.828125q0.6875 -0.296875 1.546875 -0.296875q1.296875 0 2.0625 0.65625q0.765625 0.65625 0.765625 1.84375l0 3.046875q0.015625 1.0 0.28125 1.515625l0 0.109375l-1.90625 0zm-1.546875 -1.3125q0.40625 0 0.75 -0.171875q0.359375 -0.1875 0.53125 -0.5l0 -1.21875l-0.703125 0q-1.40625 0 -1.5 0.984375l0 0.109375q0 0.34375 0.234375 0.578125q0.25 0.21875 0.6875 0.21875zm8.426895 -0.640625q0 -0.34375 -0.34375 -0.53125q-0.328125 -0.203125 -1.09375 -0.359375q-2.515625 -0.53125 -2.515625 -2.140625q0 -0.9375 0.78125 -1.5625q0.78125 -0.625 2.03125 -0.625q1.34375 0 2.140625 0.640625q0.8125 0.625 0.8125 1.625l-1.875 0q0 -0.390625 -0.265625 -0.65625q-0.265625 -0.265625 -0.8125 -0.265625q-0.46875 0 -0.734375 0.21875q-0.265625 0.203125 -0.265625 0.546875q0 0.3125 0.296875 0.5q0.296875 0.1875 1.0 0.328125q0.703125 0.140625 1.1875 0.3125q1.484375 0.546875 1.484375 1.890625q0 0.96875 -0.828125 1.5625q-0.8125 0.59375 -2.125 0.59375q-0.890625 0 -1.578125 -0.3125q-0.6875 -0.3125 -1.078125 -0.859375q-0.390625 -0.546875 -0.390625 -1.1875l1.78125 0q0.03125 0.5 0.375 0.765625q0.34375 0.265625 0.921875 0.265625q0.546875 0 0.8125 -0.203125q0.28125 -0.203125 0.28125 -0.546875zm6.8527985 0q0 -0.34375 -0.34375 -0.53125q-0.328125 -0.203125 -1.09375 -0.359375q-2.515625 -0.53125 -2.515625 -2.140625q0 -0.9375 0.78125 -1.5625q0.78125 -0.625 2.03125 -0.625q1.34375 0 2.140625 0.640625q0.8125 0.625 0.8125 1.625l-1.875 0q0 -0.390625 -0.265625 -0.65625q-0.265625 -0.265625 -0.8125 -0.265625q-0.46875 0 -0.734375 0.21875q-0.265625 0.203125 -0.265625 0.546875q0 0.3125 0.296875 0.5q0.296875 0.1875 1.0 0.328125q0.703125 0.140625 1.1875 0.3125q1.484375 0.546875 1.484375 1.890625q0 0.96875 -0.828125 1.5625q-0.8125 0.59375 -2.125 0.59375q-0.890625 0 -1.578125 -0.3125q-0.6875 -0.3125 -1.078125 -0.859375q-0.390625 -0.546875 -0.390625 -1.1875l1.78125 0q0.03125 0.5 0.375 0.765625q0.34375 0.265625 0.921875 0.265625q0.546875 0 0.8125 -0.203125q0.28125 -0.203125 0.28125 -0.546875z" fill-rule="nonzero"/><path fill="#000000" fill-opacity="0.0" d="m364.13135 120.67232l102.74017 0l0 37.92125l-102.74017 0z" fill-rule="evenodd"/><path stroke="#a72a1e" stroke-width="2.0" stroke-linejoin="round" stroke-linecap="butt" d="m364.13135 120.67232l102.74017 0l0 37.92125l-102.74017 0z" fill-rule="evenodd"/><path fill="#a72a1e" d="m394.02182 141.94856q0 -0.5625 -0.390625 -0.84375q-0.390625 -0.296875 -1.40625 -0.625q-1.015625 -0.328125 -1.609375 -0.65625q-1.625 -0.875 -1.625 -2.34375q0 -0.765625 0.4375 -1.359375q0.4375 -0.609375 1.25 -0.953125q0.8125 -0.34375 1.8125 -0.34375q1.015625 0 1.8125 0.375q0.796875 0.359375 1.234375 1.03125q0.4375 0.671875 0.4375 1.53125l-1.953125 0q0 -0.65625 -0.40625 -1.015625q-0.40625 -0.359375 -1.15625 -0.359375q-0.71875 0 -1.125 0.3125q-0.390625 0.296875 -0.390625 0.78125q0 0.46875 0.46875 0.78125q0.46875 0.3125 1.375 0.578125q1.671875 0.5 2.421875 1.25q0.765625 0.734375 0.765625 1.84375q0 1.234375 -0.9375 1.9375q-0.921875 0.6875 -2.5 0.6875q-1.09375 0 -2.0 -0.390625q-0.890625 -0.40625 -1.359375 -1.09375q-0.46875 -0.703125 -0.46875 -1.625l1.953125 0q0 1.578125 1.875 1.578125q0.703125 0 1.09375 -0.28125q0.390625 -0.296875 0.390625 -0.796875zm7.3652954 1.765625q-0.6875 0.84375 -1.921875 0.84375q-1.140625 0 -1.734375 -0.640625q-0.59375 -0.65625 -0.609375 -1.90625l0 -4.625l1.890625 0l0 4.546875q0 1.109375 1.0 1.109375q0.953125 0 1.3125 -0.671875l0 -4.984375l1.890625 0l0 7.046875l-1.78125 0l-0.046875 -0.71875zm9.583038 -2.734375q0 1.6875 -0.71875 2.640625q-0.71875 0.9375 -2.015625 0.9375q-1.140625 0 -1.828125 -0.875l-0.078125 0.75l-1.703125 0l0 -10.0l1.890625 0l0 3.59375q0.640625 -0.765625 1.703125 -0.765625q1.296875 0 2.015625 0.953125q0.734375 0.9375 0.734375 2.65625l0 0.109375zm-1.875 -0.140625q0 -1.0625 -0.34375 -1.546875q-0.328125 -0.5 -1.0 -0.5q-0.90625 0 -1.234375 0.734375l0 2.78125q0.34375 0.734375 1.25 0.734375q0.90625 0 1.1875 -0.890625q0.140625 -0.4375 0.140625 -1.3125zm5.9723206 2.203125q0.515625 0 0.84375 -0.28125q0.328125 -0.28125 0.328125 -0.765625l1.765625 0q0 0.71875 -0.390625 1.3125q-0.375 0.59375 -1.046875 0.921875q-0.671875 0.328125 -1.46875 0.328125q-1.515625 0 -2.390625 -0.953125q-0.875 -0.96875 -0.875 -2.65625l0 -0.125q0 -1.625 0.859375 -2.59375q0.875 -0.96875 2.390625 -0.96875q1.3125 0 2.109375 0.75q0.8125 0.75 0.8125 2.0l-1.765625 0q0 -0.546875 -0.328125 -0.890625q-0.328125 -0.34375 -0.859375 -0.34375q-0.65625 0 -1.0 0.484375q-0.328125 0.484375 -0.328125 1.546875l0 0.203125q0 1.078125 0.328125 1.5625q0.328125 0.46875 1.015625 0.46875zm5.997284 1.390625l-1.890625 0l0 -10.0l1.890625 0l0 10.0zm5.627533 0q-0.125 -0.25 -0.1875 -0.625q-0.671875 0.75 -1.765625 0.75q-1.046875 0 -1.734375 -0.59375q-0.671875 -0.59375 -0.671875 -1.515625q0 -1.109375 0.828125 -1.703125q0.84375 -0.609375 2.40625 -0.609375l0.859375 0l0 -0.40625q0 -0.484375 -0.25 -0.78125q-0.25 -0.296875 -0.78125 -0.296875q-0.484375 0 -0.75 0.234375q-0.265625 0.21875 -0.265625 0.625l-1.890625 0q0 -0.609375 0.375 -1.125q0.390625 -0.53125 1.078125 -0.828125q0.6875 -0.296875 1.546875 -0.296875q1.296875 0 2.0625 0.65625q0.765625 0.65625 0.765625 1.84375l0 3.046875q0.015625 1.0 0.28125 1.515625l0 0.109375l-1.90625 0zm-1.546875 -1.3125q0.40625 0 0.75 -0.171875q0.359375 -0.1875 0.53125 -0.5l0 -1.21875l-0.703125 0q-1.40625 0 -1.5 0.984375l0 0.109375q0 0.34375 0.234375 0.578125q0.25 0.21875 0.6875 0.21875zm8.42691 -0.640625q0 -0.34375 -0.34375 -0.53125q-0.328125 -0.203125 -1.09375 -0.359375q-2.515625 -0.53125 -2.515625 -2.140625q0 -0.9375 0.78125 -1.5625q0.78125 -0.625 2.03125 -0.625q1.34375 0 2.140625 0.640625q0.8125 0.625 0.8125 1.625l-1.875 0q0 -0.390625 -0.265625 -0.65625q-0.265625 -0.265625 -0.8125 -0.265625q-0.46875 0 -0.734375 0.21875q-0.265625 0.203125 -0.265625 0.546875q0 0.3125 0.296875 0.5q0.296875 0.1875 1.0 0.328125q0.703125 0.140625 1.1875 0.3125q1.484375 0.546875 1.484375 1.890625q0 0.96875 -0.828125 1.5625q-0.8125 0.59375 -2.125 0.59375q-0.890625 0 -1.578125 -0.3125q-0.6875 -0.3125 -1.078125 -0.859375q-0.390625 -0.546875 -0.390625 -1.1875l1.78125 0q0.03125 0.5 0.375 0.765625q0.34375 0.265625 0.921875 0.265625q0.546875 0 0.8125 -0.203125q0.28125 -0.203125 0.28125 -0.546875zm6.852783 0q0 -0.34375 -0.34375 -0.53125q-0.328125 -0.203125 -1.09375 -0.359375q-2.515625 -0.53125 -2.515625 -2.140625q0 -0.9375 0.78125 -1.5625q0.78125 -0.625 2.03125 -0.625q1.34375 0 2.140625 0.640625q0.8125 0.625 0.8125 1.625l-1.875 0q0 -0.390625 -0.265625 -0.65625q-0.265625 -0.265625 -0.8125 -0.265625q-0.46875 0 -0.734375 0.21875q-0.265625 0.203125 -0.265625 0.546875q0 0.3125 0.296875 0.5q0.296875 0.1875 1.0 0.328125q0.703125 0.140625 1.1875 0.3125q1.484375 0.546875 1.484375 1.890625q0 0.96875 -0.828125 1.5625q-0.8125 0.59375 -2.125 0.59375q-0.890625 0 -1.578125 -0.3125q-0.6875 -0.3125 -1.078125 -0.859375q-0.390625 -0.546875 -0.390625 -1.1875l1.78125 0q0.03125 0.5 0.375 0.765625q0.34375 0.265625 0.921875 0.265625q0.546875 0 0.8125 -0.203125q0.28125 -0.203125 0.28125 -0.546875z" fill-rule="nonzero"/><path fill="#000000" fill-opacity="0.0" d="m420.57278 229.55006l102.74014 0l0 37.92125l-102.74014 0z" fill-rule="evenodd"/><path stroke="#a72a1e" stroke-width="2.0" stroke-linejoin="round" stroke-linecap="butt" d="m420.57278 229.55006l102.74014 0l0 37.92125l-102.74014 0z" fill-rule="evenodd"/><path fill="#a72a1e" d="m442.66113 253.3107l0 -5.65625l-1.046875 0l0 -1.390625l1.046875 0l0 -0.3125q0.015625 -1.328125 0.8125 -2.046875q0.8125 -0.71875 2.28125 -0.71875q0.875 0 2.125 0.375l-0.265625 1.5625q-0.640625 -0.1875 -1.0 -0.25q-0.34375 -0.0625 -0.75 -0.0625q-1.3125 0 -1.3125 1.171875l0 0.28125l1.390625 0l0 1.390625l-1.390625 0l0 5.65625l-1.890625 0zm6.109375 0l-1.890625 0l0 -7.046875l1.890625 0l0 7.046875zm3.2806702 -7.046875l0.0625 0.8125q0.75 -0.9375 2.015625 -0.9375q1.125 0 1.671875 0.65625q0.546875 0.65625 0.5625 1.96875l0 4.546875l-1.890625 0l0 -4.5q0 -0.609375 -0.265625 -0.875q-0.25 -0.265625 -0.859375 -0.265625q-0.78125 0 -1.1875 0.671875l0 4.96875l-1.875 0l0 -7.046875l1.765625 0zm9.808289 7.046875q-0.125 -0.25 -0.1875 -0.625q-0.671875 0.75 -1.765625 0.75q-1.046875 0 -1.734375 -0.59375q-0.671875 -0.59375 -0.671875 -1.515625q0 -1.109375 0.828125 -1.703125q0.84375 -0.609375 2.40625 -0.609375l0.859375 0l0 -0.40625q0 -0.484375 -0.25 -0.78125q-0.25 -0.296875 -0.78125 -0.296875q-0.484375 0 -0.75 0.234375q-0.265625 0.21875 -0.265625 0.625l-1.890625 0q0 -0.609375 0.375 -1.125q0.390625 -0.53125 1.078125 -0.828125q0.6875 -0.296875 1.546875 -0.296875q1.296875 0 2.0625 0.65625q0.765625 0.65625 0.765625 1.84375l0 3.046875q0.015625 1.0 0.28125 1.515625l0 0.109375l-1.90625 0zm-1.546875 -1.3125q0.40625 0 0.75 -0.171875q0.359375 -0.1875 0.53125 -0.5l0 -1.21875l-0.703125 0q-1.40625 0 -1.5 0.984375l0 0.109375q0 0.34375 0.234375 0.578125q0.25 0.21875 0.6875 0.21875zm6.5987854 1.3125l-1.890625 0l0 -10.0l1.890625 0l0 10.0zm7.805908 -1.390625q0.515625 0 0.84375 -0.28125q0.328125 -0.28125 0.328125 -0.765625l1.765625 0q0 0.71875 -0.390625 1.3125q-0.375 0.59375 -1.046875 0.921875q-0.671875 0.328125 -1.46875 0.328125q-1.515625 0 -2.390625 -0.953125q-0.875 -0.96875 -0.875 -2.65625l0 -0.125q0 -1.625 0.859375 -2.59375q0.875 -0.96875 2.390625 -0.96875q1.3125 0 2.109375 0.75q0.8125 0.75 0.8125 2.0l-1.765625 0q0 -0.546875 -0.328125 -0.890625q-0.328125 -0.34375 -0.859375 -0.34375q-0.65625 0 -1.0 0.484375q-0.328125 0.484375 -0.328125 1.546875l0 0.203125q0 1.078125 0.328125 1.5625q0.328125 0.46875 1.015625 0.46875zm5.997284 1.390625l-1.890625 0l0 -10.0l1.890625 0l0 10.0zm5.627533 0q-0.125 -0.25 -0.1875 -0.625q-0.671875 0.75 -1.765625 0.75q-1.046875 0 -1.734375 -0.59375q-0.671875 -0.59375 -0.671875 -1.515625q0 -1.109375 0.828125 -1.703125q0.84375 -0.609375 2.40625 -0.609375l0.859375 0l0 -0.40625q0 -0.484375 -0.25 -0.78125q-0.25 -0.296875 -0.78125 -0.296875q-0.484375 0 -0.75 0.234375q-0.265625 0.21875 -0.265625 0.625l-1.890625 0q0 -0.609375 0.375 -1.125q0.390625 -0.53125 1.078125 -0.828125q0.6875 -0.296875 1.546875 -0.296875q1.296875 0 2.0625 0.65625q0.765625 0.65625 0.765625 1.84375l0 3.046875q0.015625 1.0 0.28125 1.515625l0 0.109375l-1.90625 0zm-1.546875 -1.3125q0.40625 0 0.75 -0.171875q0.359375 -0.1875 0.53125 -0.5l0 -1.21875l-0.703125 0q-1.40625 0 -1.5 0.984375l0 0.109375q0 0.34375 0.234375 0.578125q0.25 0.21875 0.6875 0.21875zm8.42691 -0.640625q0 -0.34375 -0.34375 -0.53125q-0.328125 -0.203125 -1.09375 -0.359375q-2.515625 -0.53125 -2.515625 -2.140625q0 -0.9375 0.78125 -1.5625q0.78125 -0.625 2.03125 -0.625q1.34375 0 2.140625 0.640625q0.8125 0.625 0.8125 1.625l-1.875 0q0 -0.390625 -0.265625 -0.65625q-0.265625 -0.265625 -0.8125 -0.265625q-0.46875 0 -0.734375 0.21875q-0.265625 0.203125 -0.265625 0.546875q0 0.3125 0.296875 0.5q0.296875 0.1875 1.0 0.328125q0.703125 0.140625 1.1875 0.3125q1.484375 0.546875 1.484375 1.890625q0 0.96875 -0.828125 1.5625q-0.8125 0.59375 -2.125 0.59375q-0.890625 0 -1.578125 -0.3125q-0.6875 -0.3125 -1.078125 -0.859375q-0.390625 -0.546875 -0.390625 -1.1875l1.78125 0q0.03125 0.5 0.375 0.765625q0.34375 0.265625 0.921875 0.265625q0.546875 0 0.8125 -0.203125q0.28125 -0.203125 0.28125 -0.546875zm6.852783 0q0 -0.34375 -0.34375 -0.53125q-0.328125 -0.203125 -1.09375 -0.359375q-2.515625 -0.53125 -2.515625 -2.140625q0 -0.9375 0.78125 -1.5625q0.78125 -0.625 2.03125 -0.625q1.34375 0 2.140625 0.640625q0.8125 0.625 0.8125 1.625l-1.875 0q0 -0.390625 -0.265625 -0.65625q-0.265625 -0.265625 -0.8125 -0.265625q-0.46875 0 -0.734375 0.21875q-0.265625 0.203125 -0.265625 0.546875q0 0.3125 0.296875 0.5q0.296875 0.1875 1.0 0.328125q0.703125 0.140625 1.1875 0.3125q1.484375 0.546875 1.484375 1.890625q0 0.96875 -0.828125 1.5625q-0.8125 0.59375 -2.125 0.59375q-0.890625 0 -1.578125 -0.3125q-0.6875 -0.3125 -1.078125 -0.859375q-0.390625 -0.546875 -0.390625 -1.1875l1.78125 0q0.03125 0.5 0.375 0.765625q0.34375 0.265625 0.921875 0.265625q0.546875 0 0.8125 -0.203125q0.28125 -0.203125 0.28125 -0.546875z" fill-rule="nonzero"/><path fill="#000000" fill-opacity="0.0" d="m307.6899 229.55006l102.74017 0l0 37.92125l-102.74017 0z" fill-rule="evenodd"/><path stroke="#a72a1e" stroke-width="2.0" stroke-linejoin="round" stroke-linecap="butt" d="m307.6899 229.55006l102.74017 0l0 37.92125l-102.74017 0z" fill-rule="evenodd"/><path fill="#a72a1e" d="m337.58038 250.82632q0 -0.5625 -0.390625 -0.84375q-0.390625 -0.296875 -1.40625 -0.625q-1.015625 -0.328125 -1.609375 -0.65625q-1.625 -0.875 -1.625 -2.34375q0 -0.765625 0.4375 -1.359375q0.4375 -0.609375 1.25 -0.953125q0.8125 -0.34375 1.8125 -0.34375q1.015625 0 1.8125 0.375q0.796875 0.359375 1.234375 1.03125q0.4375 0.671875 0.4375 1.53125l-1.953125 0q0 -0.65625 -0.40625 -1.015625q-0.40625 -0.359375 -1.15625 -0.359375q-0.71875 0 -1.125 0.3125q-0.390625 0.296875 -0.390625 0.78125q0 0.46875 0.46875 0.78125q0.46875 0.3125 1.375 0.578125q1.671875 0.5 2.421875 1.25q0.765625 0.734375 0.765625 1.84375q0 1.234375 -0.9375 1.9375q-0.921875 0.6875 -2.5 0.6875q-1.09375 0 -2.0 -0.390625q-0.890625 -0.40625 -1.359375 -1.09375q-0.46875 -0.703125 -0.46875 -1.625l1.953125 0q0 1.578125 1.875 1.578125q0.703125 0 1.09375 -0.28125q0.390625 -0.296875 0.390625 -0.796875zm7.3652954 1.765625q-0.6875 0.84375 -1.921875 0.84375q-1.140625 0 -1.734375 -0.640625q-0.59375 -0.65625 -0.609375 -1.90625l0 -4.625l1.890625 0l0 4.546875q0 1.109375 1.0 1.109375q0.953125 0 1.3125 -0.671875l0 -4.984375l1.890625 0l0 7.046875l-1.78125 0l-0.046875 -0.71875zm9.583038 -2.734375q0 1.6875 -0.71875 2.640625q-0.71875 0.9375 -2.015625 0.9375q-1.140625 0 -1.828125 -0.875l-0.078125 0.75l-1.703125 0l0 -10.0l1.890625 0l0 3.59375q0.640625 -0.765625 1.703125 -0.765625q1.296875 0 2.015625 0.953125q0.734375 0.9375 0.734375 2.65625l0 0.109375zm-1.875 -0.140625q0 -1.0625 -0.34375 -1.546875q-0.328125 -0.5 -1.0 -0.5q-0.90625 0 -1.234375 0.734375l0 2.78125q0.34375 0.734375 1.25 0.734375q0.90625 0 1.1875 -0.890625q0.140625 -0.4375 0.140625 -1.3125zm5.9723206 2.203125q0.515625 0 0.84375 -0.28125q0.328125 -0.28125 0.328125 -0.765625l1.765625 0q0 0.71875 -0.390625 1.3125q-0.375 0.59375 -1.046875 0.921875q-0.671875 0.328125 -1.46875 0.328125q-1.515625 0 -2.390625 -0.953125q-0.875 -0.96875 -0.875 -2.65625l0 -0.125q0 -1.625 0.859375 -2.59375q0.875 -0.96875 2.390625 -0.96875q1.3125 0 2.109375 0.75q0.8125 0.75 0.8125 2.0l-1.765625 0q0 -0.546875 -0.328125 -0.890625q-0.328125 -0.34375 -0.859375 -0.34375q-0.65625 0 -1.0 0.484375q-0.328125 0.484375 -0.328125 1.546875l0 0.203125q0 1.078125 0.328125 1.5625q0.328125 0.46875 1.015625 0.46875zm5.997284 1.390625l-1.890625 0l0 -10.0l1.890625 0l0 10.0zm5.627533 0q-0.125 -0.25 -0.1875 -0.625q-0.671875 0.75 -1.765625 0.75q-1.046875 0 -1.734375 -0.59375q-0.671875 -0.59375 -0.671875 -1.515625q0 -1.109375 0.828125 -1.703125q0.84375 -0.609375 2.40625 -0.609375l0.859375 0l0 -0.40625q0 -0.484375 -0.25 -0.78125q-0.25 -0.296875 -0.78125 -0.296875q-0.484375 0 -0.75 0.234375q-0.265625 0.21875 -0.265625 0.625l-1.890625 0q0 -0.609375 0.375 -1.125q0.390625 -0.53125 1.078125 -0.828125q0.6875 -0.296875 1.546875 -0.296875q1.296875 0 2.0625 0.65625q0.765625 0.65625 0.765625 1.84375l0 3.046875q0.015625 1.0 0.28125 1.515625l0 0.109375l-1.90625 0zm-1.546875 -1.3125q0.40625 0 0.75 -0.171875q0.359375 -0.1875 0.53125 -0.5l0 -1.21875l-0.703125 0q-1.40625 0 -1.5 0.984375l0 0.109375q0 0.34375 0.234375 0.578125q0.25 0.21875 0.6875 0.21875zm8.42691 -0.640625q0 -0.34375 -0.34375 -0.53125q-0.328125 -0.203125 -1.09375 -0.359375q-2.515625 -0.53125 -2.515625 -2.140625q0 -0.9375 0.78125 -1.5625q0.78125 -0.625 2.03125 -0.625q1.34375 0 2.140625 0.640625q0.8125 0.625 0.8125 1.625l-1.875 0q0 -0.390625 -0.265625 -0.65625q-0.265625 -0.265625 -0.8125 -0.265625q-0.46875 0 -0.734375 0.21875q-0.265625 0.203125 -0.265625 0.546875q0 0.3125 0.296875 0.5q0.296875 0.1875 1.0 0.328125q0.703125 0.140625 1.1875 0.3125q1.484375 0.546875 1.484375 1.890625q0 0.96875 -0.828125 1.5625q-0.8125 0.59375 -2.125 0.59375q-0.890625 0 -1.578125 -0.3125q-0.6875 -0.3125 -1.078125 -0.859375q-0.390625 -0.546875 -0.390625 -1.1875l1.78125 0q0.03125 0.5 0.375 0.765625q0.34375 0.265625 0.921875 0.265625q0.546875 0 0.8125 -0.203125q0.28125 -0.203125 0.28125 -0.546875zm6.852783 0q0 -0.34375 -0.34375 -0.53125q-0.328125 -0.203125 -1.09375 -0.359375q-2.515625 -0.53125 -2.515625 -2.140625q0 -0.9375 0.78125 -1.5625q0.78125 -0.625 2.03125 -0.625q1.34375 0 2.140625 0.640625q0.8125 0.625 0.8125 1.625l-1.875 0q0 -0.390625 -0.265625 -0.65625q-0.265625 -0.265625 -0.8125 -0.265625q-0.46875 0 -0.734375 0.21875q-0.265625 0.203125 -0.265625 0.546875q0 0.3125 0.296875 0.5q0.296875 0.1875 1.0 0.328125q0.703125 0.140625 1.1875 0.3125q1.484375 0.546875 1.484375 1.890625q0 0.96875 -0.828125 1.5625q-0.8125 0.59375 -2.125 0.59375q-0.890625 0 -1.578125 -0.3125q-0.6875 -0.3125 -1.078125 -0.859375q-0.390625 -0.546875 -0.390625 -1.1875l1.78125 0q0.03125 0.5 0.375 0.765625q0.34375 0.265625 0.921875 0.265625q0.546875 0 0.8125 -0.203125q0.28125 -0.203125 0.28125 -0.546875z" fill-rule="nonzero"/><path fill="#000000" fill-opacity="0.0" d="m184.14981 229.55006l102.74017 0l0 37.92125l-102.74017 0z" fill-rule="evenodd"/><path stroke="#a72a1e" stroke-width="2.0" stroke-linejoin="round" stroke-linecap="butt" d="m184.14981 229.55006l102.74017 0l0 37.92125l-102.74017 0z" fill-rule="evenodd"/><path fill="#a72a1e" d="m206.23816 253.3107l0 -5.65625l-1.046875 0l0 -1.390625l1.046875 0l0 -0.3125q0.015625 -1.328125 0.8125 -2.046875q0.8125 -0.71875 2.28125 -0.71875q0.875 0 2.125 0.375l-0.265625 1.5625q-0.640625 -0.1875 -1.0 -0.25q-0.34375 -0.0625 -0.75 -0.0625q-1.3125 0 -1.3125 1.171875l0 0.28125l1.390625 0l0 1.390625l-1.390625 0l0 5.65625l-1.890625 0zm6.109375 0l-1.890625 0l0 -7.046875l1.890625 0l0 7.046875zm3.2806854 -7.046875l0.0625 0.8125q0.75 -0.9375 2.015625 -0.9375q1.125 0 1.671875 0.65625q0.546875 0.65625 0.5625 1.96875l0 4.546875l-1.890625 0l0 -4.5q0 -0.609375 -0.265625 -0.875q-0.25 -0.265625 -0.859375 -0.265625q-0.78125 0 -1.1875 0.671875l0 4.96875l-1.875 0l0 -7.046875l1.765625 0zm9.808289 7.046875q-0.125 -0.25 -0.1875 -0.625q-0.671875 0.75 -1.765625 0.75q-1.046875 0 -1.734375 -0.59375q-0.671875 -0.59375 -0.671875 -1.515625q0 -1.109375 0.828125 -1.703125q0.84375 -0.609375 2.40625 -0.609375l0.859375 0l0 -0.40625q0 -0.484375 -0.25 -0.78125q-0.25 -0.296875 -0.78125 -0.296875q-0.484375 0 -0.75 0.234375q-0.265625 0.21875 -0.265625 0.625l-1.890625 0q0 -0.609375 0.375 -1.125q0.390625 -0.53125 1.078125 -0.828125q0.6875 -0.296875 1.546875 -0.296875q1.296875 0 2.0625 0.65625q0.765625 0.65625 0.765625 1.84375l0 3.046875q0.015625 1.0 0.28125 1.515625l0 0.109375l-1.90625 0zm-1.546875 -1.3125q0.40625 0 0.75 -0.171875q0.359375 -0.1875 0.53125 -0.5l0 -1.21875l-0.703125 0q-1.40625 0 -1.5 0.984375l0 0.109375q0 0.34375 0.234375 0.578125q0.25 0.21875 0.6875 0.21875zm6.59877 1.3125l-1.890625 0l0 -10.0l1.890625 0l0 10.0zm7.8059235 -1.390625q0.515625 0 0.84375 -0.28125q0.328125 -0.28125 0.328125 -0.765625l1.765625 0q0 0.71875 -0.390625 1.3125q-0.375 0.59375 -1.046875 0.921875q-0.671875 0.328125 -1.46875 0.328125q-1.515625 0 -2.390625 -0.953125q-0.875 -0.96875 -0.875 -2.65625l0 -0.125q0 -1.625 0.859375 -2.59375q0.875 -0.96875 2.390625 -0.96875q1.3125 0 2.109375 0.75q0.8125 0.75 0.8125 2.0l-1.765625 0q0 -0.546875 -0.328125 -0.890625q-0.328125 -0.34375 -0.859375 -0.34375q-0.65625 0 -1.0 0.484375q-0.328125 0.484375 -0.328125 1.546875l0 0.203125q0 1.078125 0.328125 1.5625q0.328125 0.46875 1.015625 0.46875zm5.997284 1.390625l-1.890625 0l0 -10.0l1.890625 0l0 10.0zm5.627533 0q-0.125 -0.25 -0.1875 -0.625q-0.671875 0.75 -1.765625 0.75q-1.046875 0 -1.734375 -0.59375q-0.671875 -0.59375 -0.671875 -1.515625q0 -1.109375 0.828125 -1.703125q0.84375 -0.609375 2.40625 -0.609375l0.859375 0l0 -0.40625q0 -0.484375 -0.25 -0.78125q-0.25 -0.296875 -0.78125 -0.296875q-0.484375 0 -0.75 0.234375q-0.265625 0.21875 -0.265625 0.625l-1.890625 0q0 -0.609375 0.375 -1.125q0.390625 -0.53125 1.078125 -0.828125q0.6875 -0.296875 1.546875 -0.296875q1.296875 0 2.0625 0.65625q0.765625 0.65625 0.765625 1.84375l0 3.046875q0.015625 1.0 0.28125 1.515625l0 0.109375l-1.90625 0zm-1.546875 -1.3125q0.40625 0 0.75 -0.171875q0.359375 -0.1875 0.53125 -0.5l0 -1.21875l-0.703125 0q-1.40625 0 -1.5 0.984375l0 0.109375q0 0.34375 0.234375 0.578125q0.25 0.21875 0.6875 0.21875zm8.426895 -0.640625q0 -0.34375 -0.34375 -0.53125q-0.328125 -0.203125 -1.09375 -0.359375q-2.515625 -0.53125 -2.515625 -2.140625q0 -0.9375 0.78125 -1.5625q0.78125 -0.625 2.03125 -0.625q1.34375 0 2.140625 0.640625q0.8125 0.625 0.8125 1.625l-1.875 0q0 -0.390625 -0.265625 -0.65625q-0.265625 -0.265625 -0.8125 -0.265625q-0.46875 0 -0.734375 0.21875q-0.265625 0.203125 -0.265625 0.546875q0 0.3125 0.296875 0.5q0.296875 0.1875 1.0 0.328125q0.703125 0.140625 1.1875 0.3125q1.484375 0.546875 1.484375 1.890625q0 0.96875 -0.828125 1.5625q-0.8125 0.59375 -2.125 0.59375q-0.890625 0 -1.578125 -0.3125q-0.6875 -0.3125 -1.078125 -0.859375q-0.390625 -0.546875 -0.390625 -1.1875l1.78125 0q0.03125 0.5 0.375 0.765625q0.34375 0.265625 0.921875 0.265625q0.546875 0 0.8125 -0.203125q0.28125 -0.203125 0.28125 -0.546875zm6.852783 0q0 -0.34375 -0.34375 -0.53125q-0.328125 -0.203125 -1.09375 -0.359375q-2.515625 -0.53125 -2.515625 -2.140625q0 -0.9375 0.78125 -1.5625q0.78125 -0.625 2.03125 -0.625q1.34375 0 2.140625 0.640625q0.8125 0.625 0.8125 1.625l-1.875 0q0 -0.390625 -0.265625 -0.65625q-0.265625 -0.265625 -0.8125 -0.265625q-0.46875 0 -0.734375 0.21875q-0.265625 0.203125 -0.265625 0.546875q0 0.3125 0.296875 0.5q0.296875 0.1875 1.0 0.328125q0.703125 0.140625 1.1875 0.3125q1.484375 0.546875 1.484375 1.890625q0 0.96875 -0.828125 1.5625q-0.8125 0.59375 -2.125 0.59375q-0.890625 0 -1.578125 -0.3125q-0.6875 -0.3125 -1.078125 -0.859375q-0.390625 -0.546875 -0.390625 -1.1875l1.78125 0q0.03125 0.5 0.375 0.765625q0.34375 0.265625 0.921875 0.265625q0.546875 0 0.8125 -0.203125q0.28125 -0.203125 0.28125 -0.546875z" fill-rule="nonzero"/><path fill="#000000" fill-opacity="0.0" d="m71.26696 229.55006l102.74015 0l0 37.92125l-102.74015 0z" fill-rule="evenodd"/><path stroke="#a72a1e" stroke-width="2.0" stroke-linejoin="round" stroke-linecap="butt" d="m71.26696 229.55006l102.74015 0l0 37.92125l-102.74015 0z" fill-rule="evenodd"/><path fill="#a72a1e" d="m116.583725 252.38882q0 -0.453125 0.296875 -0.734375q0.3125 -0.28125 0.765625 -0.28125q0.46875 0 0.765625 0.28125q0.3125 0.28125 0.3125 0.734375q0 0.4375 -0.3125 0.71875q-0.296875 0.28125 -0.765625 0.28125q-0.453125 0 -0.765625 -0.28125q-0.296875 -0.28125 -0.296875 -0.71875zm3.0 0q0 -0.453125 0.296875 -0.734375q0.3125 -0.28125 0.765625 -0.28125q0.46875 0 0.765625 0.28125q0.3125 0.28125 0.3125 0.734375q0 0.4375 -0.3125 0.71875q-0.296875 0.28125 -0.765625 0.28125q-0.453125 0 -0.765625 -0.28125q-0.296875 -0.28125 -0.296875 -0.71875zm3.0 0q0 -0.453125 0.296875 -0.734375q0.3125 -0.28125 0.765625 -0.28125q0.46875 0 0.765625 0.28125q0.3125 0.28125 0.3125 0.734375q0 0.4375 -0.3125 0.71875q-0.296875 0.28125 -0.765625 0.28125q-0.453125 0 -0.765625 -0.28125q-0.296875 -0.28125 -0.296875 -0.71875zm3.859436 0q0 -0.453125 0.296875 -0.734375q0.3125 -0.28125 0.765625 -0.28125q0.46875 0 0.765625 0.28125q0.3125 0.28125 0.3125 0.734375q0 0.4375 -0.3125 0.71875q-0.296875 0.28125 -0.765625 0.28125q-0.453125 0 -0.765625 -0.28125q-0.296875 -0.28125 -0.296875 -0.71875z" fill-rule="nonzero"/><path fill="#000000" fill-opacity="0.0" d="m358.9805 338.42783l102.74017 0l0 37.921265l-102.74017 0z" fill-rule="evenodd"/><path stroke="#a72a1e" stroke-width="2.0" stroke-linejoin="round" stroke-linecap="butt" d="m358.9805 338.42783l102.74017 0l0 37.921265l-102.74017 0z" fill-rule="evenodd"/><path fill="#a72a1e" d="m404.29727 361.26657q0 -0.453125 0.296875 -0.734375q0.3125 -0.28125 0.765625 -0.28125q0.46875 0 0.765625 0.28125q0.3125 0.28125 0.3125 0.734375q0 0.4375 -0.3125 0.71875q-0.296875 0.28125 -0.765625 0.28125q-0.453125 0 -0.765625 -0.28125q-0.296875 -0.28125 -0.296875 -0.71875zm3.0 0q0 -0.453125 0.296875 -0.734375q0.3125 -0.28125 0.765625 -0.28125q0.46875 0 0.765625 0.28125q0.3125 0.28125 0.3125 0.734375q0 0.4375 -0.3125 0.71875q-0.296875 0.28125 -0.765625 0.28125q-0.453125 0 -0.765625 -0.28125q-0.296875 -0.28125 -0.296875 -0.71875zm3.0 0q0 -0.453125 0.296875 -0.734375q0.3125 -0.28125 0.765625 -0.28125q0.46875 0 0.765625 0.28125q0.3125 0.28125 0.3125 0.734375q0 0.4375 -0.3125 0.71875q-0.296875 0.28125 -0.765625 0.28125q-0.453125 0 -0.765625 -0.28125q-0.296875 -0.28125 -0.296875 -0.71875zm3.859436 0q0 -0.453125 0.296875 -0.734375q0.3125 -0.28125 0.765625 -0.28125q0.46875 0 0.765625 0.28125q0.3125 0.28125 0.3125 0.734375q0 0.4375 -0.3125 0.71875q-0.296875 0.28125 -0.765625 0.28125q-0.453125 0 -0.765625 -0.28125q-0.296875 -0.28125 -0.296875 -0.71875z" fill-rule="nonzero"/><path fill="#000000" fill-opacity="0.0" d="m246.09766 338.42783l102.74014 0l0 37.921265l-102.74014 0z" fill-rule="evenodd"/><path stroke="#a72a1e" stroke-width="2.0" stroke-linejoin="round" stroke-linecap="butt" d="m246.09766 338.42783l102.74014 0l0 37.921265l-102.74014 0z" fill-rule="evenodd"/><path fill="#a72a1e" d="m291.41443 361.26657q0 -0.453125 0.296875 -0.734375q0.3125 -0.28125 0.765625 -0.28125q0.46875 0 0.765625 0.28125q0.3125 0.28125 0.3125 0.734375q0 0.4375 -0.3125 0.71875q-0.296875 0.28125 -0.765625 0.28125q-0.453125 0 -0.765625 -0.28125q-0.296875 -0.28125 -0.296875 -0.71875zm3.0 0q0 -0.453125 0.296875 -0.734375q0.3125 -0.28125 0.765625 -0.28125q0.46875 0 0.765625 0.28125q0.3125 0.28125 0.3125 0.734375q0 0.4375 -0.3125 0.71875q-0.296875 0.28125 -0.765625 0.28125q-0.453125 0 -0.765625 -0.28125q-0.296875 -0.28125 -0.296875 -0.71875zm3.0 0q0 -0.453125 0.296875 -0.734375q0.3125 -0.28125 0.765625 -0.28125q0.46875 0 0.765625 0.28125q0.3125 0.28125 0.3125 0.734375q0 0.4375 -0.3125 0.71875q-0.296875 0.28125 -0.765625 0.28125q-0.453125 0 -0.765625 -0.28125q-0.296875 -0.28125 -0.296875 -0.71875zm3.859436 0q0 -0.453125 0.296875 -0.734375q0.3125 -0.28125 0.765625 -0.28125q0.46875 0 0.765625 0.28125q0.3125 0.28125 0.3125 0.734375q0 0.4375 -0.3125 0.71875q-0.296875 0.28125 -0.765625 0.28125q-0.453125 0 -0.765625 -0.28125q-0.296875 -0.28125 -0.296875 -0.71875z" fill-rule="nonzero"/><path fill="#000000" fill-opacity="0.0" d="m132.85922 338.42783l102.74016 0l0 37.921265l-102.74016 0z" fill-rule="evenodd"/><path stroke="#a72a1e" stroke-width="2.0" stroke-linejoin="round" stroke-linecap="butt" d="m132.85922 338.42783l102.74016 0l0 37.921265l-102.74016 0z" fill-rule="evenodd"/><path fill="#a72a1e" d="m179.23352 361.26657q0 -0.453125 0.296875 -0.734375q0.3125 -0.28125 0.765625 -0.28125q0.46875 0 0.765625 0.28125q0.3125 0.28125 0.3125 0.734375q0 0.4375 -0.3125 0.71875q-0.296875 0.28125 -0.765625 0.28125q-0.453125 0 -0.765625 -0.28125q-0.296875 -0.28125 -0.296875 -0.71875zm3.8721924 0q0 -0.453125 0.296875 -0.734375q0.3125 -0.28125 0.765625 -0.28125q0.46875 0 0.765625 0.28125q0.3125 0.28125 0.3125 0.734375q0 0.4375 -0.3125 0.71875q-0.296875 0.28125 -0.765625 0.28125q-0.453125 0 -0.765625 -0.28125q-0.296875 -0.28125 -0.296875 -0.71875zm3.8721924 0q0 -0.453125 0.296875 -0.734375q0.3125 -0.28125 0.765625 -0.28125q0.46875 0 0.765625 0.28125q0.3125 0.28125 0.3125 0.734375q0 0.4375 -0.3125 0.71875q-0.296875 0.28125 -0.765625 0.28125q-0.453125 0 -0.765625 -0.28125q-0.296875 -0.28125 -0.296875 -0.71875z" fill-rule="nonzero"/><path fill="#000000" fill-opacity="0.0" d="m19.976377 338.42783l102.74016 0l0 37.921265l-102.74016 0z" fill-rule="evenodd"/><path stroke="#a72a1e" stroke-width="2.0" stroke-linejoin="round" stroke-linecap="butt" d="m19.976377 338.42783l102.74016 0l0 37.921265l-102.74016 0z" fill-rule="evenodd"/><path fill="#a72a1e" d="m65.293144 361.26657q0 -0.453125 0.296875 -0.734375q0.3125 -0.28125 0.765625 -0.28125q0.46875 0 0.765625 0.28125q0.3125 0.28125 0.3125 0.734375q0 0.4375 -0.3125 0.71875q-0.296875 0.28125 -0.765625 0.28125q-0.453125 0 -0.765625 -0.28125q-0.296875 -0.28125 -0.296875 -0.71875zm3.0 0q0 -0.453125 0.296875 -0.734375q0.3125 -0.28125 0.765625 -0.28125q0.46875 0 0.765625 0.28125q0.3125 0.28125 0.3125 0.734375q0 0.4375 -0.3125 0.71875q-0.296875 0.28125 -0.765625 0.28125q-0.453125 0 -0.765625 -0.28125q-0.296875 -0.28125 -0.296875 -0.71875zm3.0 0q0 -0.453125 0.296875 -0.734375q0.3125 -0.28125 0.765625 -0.28125q0.46875 0 0.765625 0.28125q0.3125 0.28125 0.3125 0.734375q0 0.4375 -0.3125 0.71875q-0.296875 0.28125 -0.765625 0.28125q-0.453125 0 -0.765625 -0.28125q-0.296875 -0.28125 -0.296875 -0.71875zm3.859436 0q0 -0.453125 0.296875 -0.734375q0.3125 -0.28125 0.765625 -0.28125q0.46875 0 0.765625 0.28125q0.3125 0.28125 0.3125 0.734375q0 0.4375 -0.3125 0.71875q-0.296875 0.28125 -0.765625 0.28125q-0.453125 0 -0.765625 -0.28125q-0.296875 -0.28125 -0.296875 -0.71875z" fill-rule="nonzero"/><path fill="#000000" fill-opacity="0.0" d="m471.86337 338.42783l102.74014 0l0 37.921265l-102.74014 0z" fill-rule="evenodd"/><path stroke="#a72a1e" stroke-width="2.0" stroke-linejoin="round" stroke-linecap="butt" d="m471.86337 338.42783l102.74014 0l0 37.921265l-102.74014 0z" fill-rule="evenodd"/><path fill="#a72a1e" d="m515.244 361.26657q0 -0.453125 0.296875 -0.734375q0.3125 -0.28125 0.765625 -0.28125q0.46875 0 0.765625 0.28125q0.3125 0.28125 0.3125 0.734375q0 0.4375 -0.3125 0.71875q-0.296875 0.28125 -0.765625 0.28125q-0.453125 0 -0.765625 -0.28125q-0.296875 -0.28125 -0.296875 -0.71875zm3.0 0q0 -0.453125 0.296875 -0.734375q0.3125 -0.28125 0.765625 -0.28125q0.46875 0 0.765625 0.28125q0.3125 0.28125 0.3125 0.734375q0 0.4375 -0.3125 0.71875q-0.296875 0.28125 -0.765625 0.28125q-0.453125 0 -0.765625 -0.28125q-0.296875 -0.28125 -0.296875 -0.71875zm3.0 0q0 -0.453125 0.296875 -0.734375q0.3125 -0.28125 0.765625 -0.28125q0.46875 0 0.765625 0.28125q0.3125 0.28125 0.3125 0.734375q0 0.4375 -0.3125 0.71875q-0.296875 0.28125 -0.765625 0.28125q-0.453125 0 -0.765625 -0.28125q-0.296875 -0.28125 -0.296875 -0.71875zm3.859436 0q0 -0.453125 0.296875 -0.734375q0.3125 -0.28125 0.765625 -0.28125q0.46875 0 0.765625 0.28125q0.3125 0.28125 0.3125 0.734375q0 0.4375 -0.3125 0.71875q-0.296875 0.28125 -0.765625 0.28125q-0.453125 0 -0.765625 -0.28125q-0.296875 -0.28125 -0.296875 -0.71875zm3.8721924 0q0 -0.453125 0.296875 -0.734375q0.3125 -0.28125 0.765625 -0.28125q0.46875 0 0.765625 0.28125q0.3125 0.28125 0.3125 0.734375q0 0.4375 -0.3125 0.71875q-0.296875 0.28125 -0.765625 0.28125q-0.453125 0 -0.765625 -0.28125q-0.296875 -0.28125 -0.296875 -0.71875z" fill-rule="nonzero"/></g></svg>