<svg version="1.1" viewBox="0.0 0.0 384.0 384.0" fill="none" stroke="none" stroke-linecap="square" stroke-miterlimit="10" xmlns:xlink="http://www.w3.org/1999/xlink" xmlns="http://www.w3.org/2000/svg"><clipPath id="p.0"><path d="m0 0l384.0 0l0 384.0l-384.0 0l0 -384.0z" clip-rule="nonzero"/></clipPath><g clip-path="url(#p.0)"><path fill="#000000" fill-opacity="0.0" d="m0 0l384.0 0l0 384.0l-384.0 0z" fill-rule="evenodd"/><path fill="#f4cccc" d="m25.248697 21.577929l78.86614 0l0 28.25197l-78.86614 0z" fill-rule="evenodd"/><path stroke="#cc0000" stroke-width="2.0" stroke-linejoin="round" stroke-linecap="butt" d="m25.248697 21.577929l78.86614 0l0 28.25197l-78.86614 0z" fill-rule="evenodd"/><path fill="#9900ff" d="m54.910213 31.035162l2.4375 6.859377l2.421875 -6.859377l2.5625 0l0 9.468752l-1.953125 0l0 -2.59375l0.1875 -4.46875l-2.546875 7.0625l-1.34375 0l-2.546875 -7.046875l0.1875 4.453125l0 2.59375l-1.953125 0l0 -9.468752l2.546875 0zm13.081379 9.468752q-0.125 -0.25 -0.1875 -0.625q-0.671875 0.75 -1.765625 0.75q-1.046875 0 -1.734375 -0.59375q-0.6718788 -0.59375 -0.6718788 -1.515625q0 -1.109375 0.8281288 -1.703125q0.84375 -0.609375 2.40625 -0.609375l0.859375 0l0 -0.40625q0 -0.484375 -0.25 -0.78125q-0.25 -0.296875 -0.78125 -0.296875q-0.484375 0 -0.75 0.234375q-0.265625 0.21875 -0.265625 0.625l-1.8906288 0q0 -0.609375 0.3750038 -1.125q0.390625 -0.53125 1.078125 -0.828125q0.6875 -0.296875 1.546875 -0.296875q1.296875 0 2.0625 0.65625q0.765625 0.65625 0.765625 1.84375l0 3.046875q0.015625 1.0 0.28125 1.515625l0 0.109375l-1.90625 0zm-1.546875 -1.3125q0.40625 0 0.75 -0.171875q0.359375 -0.1875 0.53125 -0.5l0 -1.21875l-0.703125 0q-1.40625 0 -1.5 0.984375l0 0.109375q0 0.34375 0.234375 0.578125q0.25 0.21875 0.6875 0.21875zm10.958145 -2.140625q0 1.625 -0.75 2.609375q-0.734375 0.96875 -1.984375 0.96875q-1.0625 0 -1.71875 -0.734375l0 3.3125l-1.890625 0l0 -9.75l1.75 0l0.0625 0.6875q0.6875 -0.8125 1.78125 -0.8125q1.296875 0 2.015625 0.96875q0.734375 0.953125 0.734375 2.65625l0 0.09375zm-1.875 -0.140625q0 -0.984375 -0.359375 -1.515625q-0.34375 -0.53125 -1.015625 -0.53125q-0.875 0 -1.203125 0.671875l0 2.890625q0.34375 0.6875 1.21875 0.6875q1.359375 0 1.359375 -2.203125z" fill-rule="nonzero"/><path fill="#f4cccc" d="m262.41324 114.90804l85.29135 0l0 28.251976l-85.29135 0z" fill-rule="evenodd"/><path stroke="#cc0000" stroke-width="2.0" stroke-linejoin="round" stroke-linecap="butt" d="m262.41324 114.90804l85.29135 0l0 28.251976l-85.29135 0z" fill-rule="evenodd"/><path fill="#9900ff" d="m277.59525 131.34966q0 -0.5625 -0.390625 -0.84375q-0.390625 -0.296875 -1.40625 -0.625q-1.015625 -0.328125 -1.609375 -0.65625q-1.625 -0.875 -1.625 -2.34375q0 -0.765625 0.4375 -1.359375q0.4375 -0.609375 1.25 -0.953125q0.8125 -0.34375 1.8125 -0.34375q1.015625 0 1.8125 0.375q0.796875 0.359375 1.234375 1.03125q0.4375 0.671875 0.4375 1.53125l-1.953125 0q0 -0.65625 -0.40625 -1.015625q-0.40625 -0.359375 -1.15625 -0.359375q-0.71875 0 -1.125 0.3125q-0.390625 0.296875 -0.390625 0.78125q0 0.46875 0.46875 0.78125q0.46875 0.3125 1.375 0.578125q1.671875 0.5 2.421875 1.25q0.765625 0.734375 0.765625 1.84375q0 1.234375 -0.9375 1.9375q-0.921875 0.6875 -2.5 0.6875q-1.09375 0 -2.0 -0.390625q-0.890625 -0.40625 -1.359375 -1.09375q-0.46875 -0.703125 -0.46875 -1.625l1.953125 0q0 1.578125 1.875 1.578125q0.703125 0 1.09375 -0.28125q0.390625 -0.296875 0.390625 -0.796875zm2.8496704 -1.09375q0 -1.0625 0.40625 -1.875q0.40625 -0.828125 1.15625 -1.265625q0.765625 -0.453125 1.765625 -0.453125q1.4375 0 2.328125 0.875q0.90625 0.875 1.015625 2.359375l0 0.484375q0 1.625 -0.90625 2.609375q-0.890625 0.96875 -2.421875 0.96875q-1.515625 0 -2.4375 -0.96875q-0.90625 -0.984375 -0.90625 -2.65625l0 -0.078125zm1.890625 0.125q0 1.0 0.375 1.53125q0.375 0.53125 1.078125 0.53125q0.6875 0 1.0625 -0.515625q0.390625 -0.53125 0.390625 -1.671875q0 -0.984375 -0.390625 -1.53125q-0.375 -0.546875 -1.078125 -0.546875q-0.6875 0 -1.0625 0.546875q-0.375 0.53125 -0.375 1.65625zm9.895508 -1.828125q-0.375 -0.046875 -0.671875 -0.046875q-1.0625 0 -1.390625 0.71875l0 4.609375l-1.890625 0l0 -7.046875l1.78125 0l0.046875 0.84375q0.578125 -0.96875 1.578125 -0.96875q0.3125 0 0.578125 0.078125l-0.03125 1.8125zm3.4837646 -3.484375l0 1.71875l1.203125 0l0 1.390625l-1.203125 0l0 3.515625q0 0.390625 0.15625 0.5625q0.15625 0.15625 0.578125 0.15625q0.3125 0 0.546875 -0.046875l0 1.4375q-0.546875 0.15625 -1.140625 0.15625q-1.984375 0 -2.015625 -2.0l0 -3.78125l-1.03125 0l0 -1.390625l1.03125 0l0 -1.71875l1.875 0zm5.5034485 8.890625q-1.546875 0 -2.53125 -0.9375q-0.96875 -0.953125 -0.96875 -2.53125l0 -0.1875q0 -1.0625 0.40625 -1.890625q0.40625 -0.84375 1.15625 -1.296875q0.765625 -0.453125 1.71875 -0.453125q1.453125 0 2.28125 0.921875q0.828125 0.90625 0.828125 2.578125l0 0.765625l-4.484375 0q0.09375 0.6875 0.546875 1.109375q0.46875 0.40625 1.171875 0.40625q1.078125 0 1.6875 -0.78125l0.921875 1.03125q-0.421875 0.59375 -1.140625 0.9375q-0.71875 0.328125 -1.59375 0.328125zm-0.21875 -5.78125q-0.5625 0 -0.90625 0.390625q-0.34375 0.375 -0.453125 1.078125l2.625 0l0 -0.15625q-0.015625 -0.625 -0.34375 -0.96875q-0.328125 -0.34375 -0.921875 -0.34375zm3.8760986 2.078125q0 -1.640625 0.734375 -2.609375q0.75 -0.984375 2.03125 -0.984375q1.03125 0 1.703125 0.765625l0 -3.59375l1.890625 0l0 10.0l-1.703125 0l-0.09375 -0.75q-0.703125 0.875 -1.8125 0.875q-1.234375 0 -2.0 -0.96875q-0.75 -0.984375 -0.75 -2.734375zm1.890625 0.140625q0 0.984375 0.34375 1.515625q0.34375 0.53125 1.0 0.53125q0.875 0 1.234375 -0.734375l0 -2.78125q-0.359375 -0.734375 -1.21875 -0.734375q-1.359375 0 -1.359375 2.203125zm8.588226 -6.03125l2.4375 6.859375l2.421875 -6.859375l2.5625 0l0 9.46875l-1.953125 0l0 -2.59375l0.1875 -4.46875l-2.546875 7.0625l-1.34375 0l-2.546875 -7.046875l0.1875 4.453125l0 2.59375l-1.953125 0l0 -9.46875l2.546875 0zm13.08136 9.46875q-0.125 -0.25 -0.1875 -0.625q-0.671875 0.75 -1.765625 0.75q-1.046875 0 -1.734375 -0.59375q-0.671875 -0.59375 -0.671875 -1.515625q0 -1.109375 0.828125 -1.703125q0.84375 -0.609375 2.40625 -0.609375l0.859375 0l0 -0.40625q0 -0.484375 -0.25 -0.78125q-0.25 -0.296875 -0.78125 -0.296875q-0.484375 0 -0.75 0.234375q-0.265625 0.21875 -0.265625 0.625l-1.890625 0q0 -0.609375 0.375 -1.125q0.390625 -0.53125 1.078125 -0.828125q0.6875 -0.296875 1.546875 -0.296875q1.296875 0 2.0625 0.65625q0.765625 0.65625 0.765625 1.84375l0 3.046875q0.015625 1.0 0.28125 1.515625l0 0.109375l-1.90625 0zm-1.546875 -1.3125q0.40625 0 0.75 -0.171875q0.359375 -0.1875 0.53125 -0.5l0 -1.21875l-0.703125 0q-1.40625 0 -1.5 0.984375l0 0.109375q0 0.34375 0.234375 0.578125q0.25 0.21875 0.6875 0.21875zm10.95816 -2.140625q0 1.625 -0.75 2.609375q-0.734375 0.96875 -1.984375 0.96875q-1.0625 0 -1.71875 -0.734375l0 3.3125l-1.890625 0l0 -9.75l1.75 0l0.0625 0.6875q0.6875 -0.8125 1.78125 -0.8125q1.296875 0 2.015625 0.96875q0.734375 0.953125 0.734375 2.65625l0 0.09375zm-1.875 -0.140625q0 -0.984375 -0.359375 -1.515625q-0.34375 -0.53125 -1.015625 -0.53125q-0.875 0 -1.203125 0.671875l0 2.890625q0.34375 0.6875 1.21875 0.6875q1.359375 0 1.359375 -2.203125z" fill-rule="nonzero"/><path fill="#000000" fill-opacity="0.0" d="m104.11484 35.703915l200.94489 0l0 79.2126" fill-rule="evenodd"/><path stroke="#999999" stroke-width="2.0" stroke-miterlimit="8.0" stroke-linecap="butt" d="m113.11484 35.70391l191.94489 0l0 79.2126" fill-rule="evenodd"/><path fill="#999999" stroke="#999999" stroke-width="2.0" stroke-linecap="butt" d="m113.11484 33.49236l-6.076195 2.2115517l6.076195 2.2115555z" fill-rule="evenodd"/><path fill="#d9ead3" d="m262.41324 201.58258l85.29135 0l0 28.251968l-85.29135 0z" fill-rule="evenodd"/><path stroke="#134f5c" stroke-width="2.0" stroke-linejoin="round" stroke-linecap="butt" d="m262.41324 201.58258l85.29135 0l0 28.251968l-85.29135 0z" fill-rule="evenodd"/><path fill="#134f5c" d="m286.39688 212.61795l-2.90625 0l0 7.890625l-1.953125 0l0 -7.890625l-2.859375 0l0 -1.578125l7.71875 0l0 1.578125zm4.5098267 2.609375q-0.375 -0.046875 -0.671875 -0.046875q-1.0625 0 -1.390625 0.71875l0 4.609375l-1.890625 0l0 -7.046875l1.78125 0l0.046875 0.84375q0.578125 -0.96875 1.578125 -0.96875q0.3125 0 0.578125 0.078125l-0.03125 1.8125zm4.034546 5.40625q-1.546875 0 -2.53125 -0.9375q-0.96875 -0.953125 -0.96875 -2.53125l0 -0.1875q0 -1.0625 0.40625 -1.890625q0.40625 -0.84375 1.15625 -1.296875q0.765625 -0.453125 1.71875 -0.453125q1.453125 0 2.28125 0.921875q0.828125 0.90625 0.828125 2.578125l0 0.765625l-4.484375 0q0.09375 0.6875 0.546875 1.109375q0.46875 0.40625 1.171875 0.40625q1.078125 0 1.6875 -0.78125l0.921875 1.03125q-0.421875 0.59375 -1.140625 0.9375q-0.71875 0.328125 -1.59375 0.328125zm-0.21875 -5.78125q-0.5625 0 -0.90625 0.390625q-0.34375 0.375 -0.453125 1.078125l2.625 0l0 -0.15625q-0.015625 -0.625 -0.34375 -0.96875q-0.328125 -0.34375 -0.921875 -0.34375zm7.4229736 5.78125q-1.546875 0 -2.53125 -0.9375q-0.96875 -0.953125 -0.96875 -2.53125l0 -0.1875q0 -1.0625 0.40625 -1.890625q0.40625 -0.84375 1.15625 -1.296875q0.765625 -0.453125 1.71875 -0.453125q1.453125 0 2.28125 0.921875q0.828125 0.90625 0.828125 2.578125l0 0.765625l-4.484375 0q0.09375 0.6875 0.546875 1.109375q0.46875 0.40625 1.171875 0.40625q1.078125 0 1.6875 -0.78125l0.921875 1.03125q-0.421875 0.59375 -1.140625 0.9375q-0.71875 0.328125 -1.59375 0.328125zm-0.21875 -5.78125q-0.5625 0 -0.90625 0.390625q-0.34375 0.375 -0.453125 1.078125l2.625 0l0 -0.15625q-0.015625 -0.625 -0.34375 -0.96875q-0.328125 -0.34375 -0.921875 -0.34375zm6.8448486 -3.8125l2.4375 6.859375l2.421875 -6.859375l2.5625 0l0 9.46875l-1.953125 0l0 -2.59375l0.1875 -4.46875l-2.546875 7.0625l-1.34375 0l-2.546875 -7.046875l0.1875 4.453125l0 2.59375l-1.953125 0l0 -9.46875l2.546875 0zm13.08139 9.46875q-0.125 -0.25 -0.1875 -0.625q-0.671875 0.75 -1.765625 0.75q-1.046875 0 -1.734375 -0.59375q-0.671875 -0.59375 -0.671875 -1.515625q0 -1.109375 0.828125 -1.703125q0.84375 -0.609375 2.40625 -0.609375l0.859375 0l0 -0.40625q0 -0.484375 -0.25 -0.78125q-0.25 -0.296875 -0.78125 -0.296875q-0.484375 0 -0.75 0.234375q-0.265625 0.21875 -0.265625 0.625l-1.890625 0q0 -0.609375 0.375 -1.125q0.390625 -0.53125 1.078125 -0.828125q0.6875 -0.296875 1.546875 -0.296875q1.296875 0 2.0625 0.65625q0.765625 0.65625 0.765625 1.84375l0 3.046875q0.015625 1.0 0.28125 1.515625l0 0.109375l-1.90625 0zm-1.546875 -1.3125q0.40625 0 0.75 -0.171875q0.359375 -0.1875 0.53125 -0.5l0 -1.21875l-0.703125 0q-1.40625 0 -1.5 0.984375l0 0.109375q0 0.34375 0.234375 0.578125q0.25 0.21875 0.6875 0.21875zm10.95813 -2.140625q0 1.625 -0.75 2.609375q-0.734375 0.96875 -1.984375 0.96875q-1.0625 0 -1.71875 -0.734375l0 3.3125l-1.890625 0l0 -9.75l1.75 0l0.0625 0.6875q0.6875 -0.8125 1.78125 -0.8125q1.296875 0 2.015625 0.96875q0.734375 0.953125 0.734375 2.65625l0 0.09375zm-1.875 -0.140625q0 -0.984375 -0.359375 -1.515625q-0.34375 -0.53125 -1.015625 -0.53125q-0.875 0 -1.203125 0.671875l0 2.890625q0.34375 0.6875 1.21875 0.6875q1.359375 0 1.359375 -2.203125z" fill-rule="nonzero"/><path fill="#d9ead3" d="m122.400116 201.5839l85.291336 0l0 28.251968l-85.291336 0z" fill-rule="evenodd"/><path stroke="#134f5c" stroke-width="2.0" stroke-linejoin="round" stroke-linecap="butt" d="m122.400116 201.5839l85.291336 0l0 28.251968l-85.291336 0z" fill-rule="evenodd"/><path fill="#134f5c" d="m145.00941 220.50989l-1.953125 0l0 -4.0625l-3.8125 0l0 4.0625l-1.953125 0l0 -9.46875l1.953125 0l0 3.828125l3.8125 0l0 -3.828125l1.953125 0l0 9.46875zm5.6512756 0q-0.125 -0.25 -0.1875 -0.625q-0.671875 0.75 -1.765625 0.75q-1.046875 0 -1.734375 -0.59375q-0.671875 -0.59375 -0.671875 -1.515625q0 -1.109375 0.828125 -1.703125q0.84375 -0.609375 2.40625 -0.609375l0.859375 0l0 -0.40625q0 -0.484375 -0.25 -0.78125q-0.25 -0.296875 -0.78125 -0.296875q-0.484375 0 -0.75 0.234375q-0.265625 0.21875 -0.265625 0.625l-1.890625 0q0 -0.609375 0.375 -1.125q0.390625 -0.53125 1.078125 -0.828125q0.6875 -0.296875 1.546875 -0.296875q1.296875 0 2.0625 0.65625q0.765625 0.65625 0.765625 1.84375l0 3.046875q0.015625 1.0 0.28125 1.515625l0 0.109375l-1.90625 0zm-1.546875 -1.3125q0.40625 0 0.75 -0.171875q0.359375 -0.1875 0.53125 -0.5l0 -1.21875l-0.703125 0q-1.40625 0 -1.5 0.984375l0 0.109375q0 0.34375 0.234375 0.578125q0.25 0.21875 0.6875 0.21875zm8.426895 -0.640625q0 -0.34375 -0.34375 -0.53125q-0.328125 -0.203125 -1.09375 -0.359375q-2.515625 -0.53125 -2.515625 -2.140625q0 -0.9375 0.78125 -1.5625q0.78125 -0.625 2.03125 -0.625q1.34375 0 2.140625 0.640625q0.8125 0.625 0.8125 1.625l-1.875 0q0 -0.390625 -0.265625 -0.65625q-0.265625 -0.265625 -0.8125 -0.265625q-0.46875 0 -0.734375 0.21875q-0.265625 0.203125 -0.265625 0.546875q0 0.3125 0.296875 0.5q0.296875 0.1875 1.0 0.328125q0.703125 0.140625 1.1875 0.3125q1.484375 0.546875 1.484375 1.890625q0 0.96875 -0.828125 1.5625q-0.8125 0.59375 -2.125 0.59375q-0.890625 0 -1.578125 -0.3125q-0.6875 -0.3125 -1.078125 -0.859375q-0.390625 -0.546875 -0.390625 -1.1875l1.78125 0q0.03125 0.5 0.375 0.765625q0.34375 0.265625 0.921875 0.265625q0.546875 0 0.8125 -0.203125q0.28125 -0.203125 0.28125 -0.546875zm4.8840485 -4.328125q0.75 -0.890625 1.875 -0.890625q2.296875 0 2.328125 2.65625l0 4.515625l-1.890625 0l0 -4.453125q0 -0.609375 -0.265625 -0.890625q-0.25 -0.296875 -0.859375 -0.296875q-0.828125 0 -1.1875 0.640625l0 5.0l-1.890625 0l0 -10.0l1.890625 0l0 3.71875zm8.286148 -3.1875l2.4375 6.859375l2.421875 -6.859375l2.5625 0l0 9.46875l-1.953125 0l0 -2.59375l0.1875 -4.46875l-2.546875 7.0625l-1.34375 0l-2.546875 -7.046875l0.1875 4.453125l0 2.59375l-1.953125 0l0 -9.46875l2.546875 0zm13.081375 9.46875q-0.125 -0.25 -0.1875 -0.625q-0.671875 0.75 -1.765625 0.75q-1.046875 0 -1.734375 -0.59375q-0.671875 -0.59375 -0.671875 -1.515625q0 -1.109375 0.828125 -1.703125q0.84375 -0.609375 2.40625 -0.609375l0.859375 0l0 -0.40625q0 -0.484375 -0.25 -0.78125q-0.25 -0.296875 -0.78125 -0.296875q-0.484375 0 -0.75 0.234375q-0.265625 0.21875 -0.265625 0.625l-1.890625 0q0 -0.609375 0.375 -1.125q0.390625 -0.53125 1.078125 -0.828125q0.6875 -0.296875 1.546875 -0.296875q1.296875 0 2.0625 0.65625q0.765625 0.65625 0.765625 1.84375l0 3.046875q0.015625 1.0 0.28125 1.515625l0 0.109375l-1.90625 0zm-1.546875 -1.3125q0.40625 0 0.75 -0.171875q0.359375 -0.1875 0.53125 -0.5l0 -1.21875l-0.703125 0q-1.40625 0 -1.5 0.984375l0 0.109375q0 0.34375 0.234375 0.578125q0.25 0.21875 0.6875 0.21875zm10.958145 -2.140625q0 1.625 -0.75 2.609375q-0.734375 0.96875 -1.984375 0.96875q-1.0625 0 -1.71875 -0.734375l0 3.3125l-1.890625 0l0 -9.75l1.75 0l0.0625 0.6875q0.6875 -0.8125 1.78125 -0.8125q1.296875 0 2.015625 0.96875q0.734375 0.953125 0.734375 2.65625l0 0.09375zm-1.875 -0.140625q0 -0.984375 -0.359375 -1.515625q-0.34375 -0.53125 -1.015625 -0.53125q-0.875 0 -1.203125 0.671875l0 2.890625q0.34375 0.6875 1.21875 0.6875q1.359375 0 1.359375 -2.203125z" fill-rule="nonzero"/><path fill="#d9ead3" d="m122.39895 260.86322l85.29134 0l0 31.527588l-85.29134 0z" fill-rule="evenodd"/><path stroke="#134f5c" stroke-width="2.0" stroke-linejoin="round" stroke-linecap="butt" d="m122.39895 260.86322l85.29134 0l0 31.527588l-85.29134 0z" fill-rule="evenodd"/><path fill="#134f5c" d="m147.88185 271.8645l4.140625 0l0 1.5625l-6.09375 0l0 -9.46875l1.953125 0l0 7.90625zm7.1234894 1.5625l-1.890625 0l0 -7.046875l1.890625 0l0 7.046875zm-2.0 -8.859375q0 -0.421875 0.28125 -0.6875q0.296875 -0.28125 0.78125 -0.28125q0.484375 0 0.765625 0.28125q0.28125 0.265625 0.28125 0.6875q0 0.421875 -0.296875 0.703125q-0.28125 0.265625 -0.765625 0.265625q-0.46875 0 -0.765625 -0.265625q-0.28125 -0.28125 -0.28125 -0.703125zm5.283783 1.8125l0.0625 0.8125q0.75 -0.9375 2.015625 -0.9375q1.125 0 1.671875 0.65625q0.546875 0.65625 0.5625 1.96875l0 4.546875l-1.890625 0l0 -4.5q0 -0.609375 -0.265625 -0.875q-0.25 -0.265625 -0.859375 -0.265625q-0.78125 0 -1.1875 0.671875l0 4.96875l-1.875 0l0 -7.046875l1.765625 0zm8.292664 4.21875l-0.671875 0.6875l0 2.140625l-1.890625 0l0 -10.0l1.890625 0l0 5.546875l0.359375 -0.46875l1.796875 -2.125l2.265625 0l-2.546875 2.9375l2.765625 4.109375l-2.15625 0l-1.8125 -2.828125zm7.6769104 2.953125q-1.546875 0 -2.53125 -0.9375q-0.96875 -0.953125 -0.96875 -2.53125l0 -0.1875q0 -1.0625 0.40625 -1.890625q0.40625 -0.84375 1.15625 -1.296875q0.765625 -0.453125 1.71875 -0.453125q1.453125 0 2.28125 0.921875q0.828125 0.90625 0.828125 2.578125l0 0.765625l-4.484375 0q0.09375 0.6875 0.546875 1.109375q0.46875 0.40625 1.171875 0.40625q1.078125 0 1.6875 -0.78125l0.921875 1.03125q-0.421875 0.59375 -1.140625 0.9375q-0.71875 0.328125 -1.59375 0.328125zm-0.21875 -5.78125q-0.5625 0 -0.90625 0.390625q-0.34375 0.375 -0.453125 1.078125l2.625 0l0 -0.15625q-0.015625 -0.625 -0.34375 -0.96875q-0.328125 -0.34375 -0.921875 -0.34375zm3.8760986 2.078125q0 -1.640625 0.734375 -2.609375q0.75 -0.984375 2.03125 -0.984375q1.03125 0 1.703125 0.765625l0 -3.59375l1.890625 0l0 10.0l-1.703125 0l-0.09375 -0.75q-0.703125 0.875 -1.8125 0.875q-1.234375 0 -2.0 -0.96875q-0.75 -0.984375 -0.75 -2.734375zm1.890625 0.140625q0 0.984375 0.34375 1.515625q0.34375 0.53125 1.0 0.53125q0.875 0 1.234375 -0.734375l0 -2.78125q-0.359375 -0.734375 -1.21875 -0.734375q-1.359375 0 -1.359375 2.203125z" fill-rule="nonzero"/><path fill="#134f5c" d="m145.00826 289.427l-1.953125 0l0 -4.0625l-3.8125 0l0 4.0625l-1.953125 0l0 -9.46875l1.953125 0l0 3.828125l3.8125 0l0 -3.828125l1.953125 0l0 9.46875zm5.6512756 0q-0.125 -0.25 -0.1875 -0.625q-0.671875 0.75 -1.765625 0.75q-1.046875 0 -1.734375 -0.59375q-0.671875 -0.59375 -0.671875 -1.515625q0 -1.109375 0.828125 -1.703125q0.84375 -0.609375 2.40625 -0.609375l0.859375 0l0 -0.40625q0 -0.484375 -0.25 -0.78125q-0.25 -0.296875 -0.78125 -0.296875q-0.484375 0 -0.75 0.234375q-0.265625 0.21875 -0.265625 0.625l-1.890625 0q0 -0.609375 0.375 -1.125q0.390625 -0.53125 1.078125 -0.828125q0.6875 -0.296875 1.546875 -0.296875q1.296875 0 2.0625 0.65625q0.765625 0.65625 0.765625 1.84375l0 3.046875q0.015625 1.0 0.28125 1.515625l0 0.109375l-1.90625 0zm-1.546875 -1.3125q0.40625 0 0.75 -0.171875q0.359375 -0.1875 0.53125 -0.5l0 -1.21875l-0.703125 0q-1.40625 0 -1.5 0.984375l0 0.109375q0 0.34375 0.234375 0.578125q0.25 0.21875 0.6875 0.21875zm8.426895 -0.640625q0 -0.34375 -0.34375 -0.53125q-0.328125 -0.203125 -1.09375 -0.359375q-2.515625 -0.53125 -2.515625 -2.140625q0 -0.9375 0.78125 -1.5625q0.78125 -0.625 2.03125 -0.625q1.34375 0 2.140625 0.640625q0.8125 0.625 0.8125 1.625l-1.875 0q0 -0.390625 -0.265625 -0.65625q-0.265625 -0.265625 -0.8125 -0.265625q-0.46875 0 -0.734375 0.21875q-0.265625 0.203125 -0.265625 0.546875q0 0.3125 0.296875 0.5q0.296875 0.1875 1.0 0.328125q0.703125 0.140625 1.1875 0.3125q1.484375 0.546875 1.484375 1.890625q0 0.96875 -0.828125 1.5625q-0.8125 0.59375 -2.125 0.59375q-0.890625 0 -1.578125 -0.3125q-0.6875 -0.3125 -1.078125 -0.859375q-0.390625 -0.546875 -0.390625 -1.1875l1.78125 0q0.03125 0.5 0.375 0.765625q0.34375 0.265625 0.921875 0.265625q0.546875 0 0.8125 -0.203125q0.28125 -0.203125 0.28125 -0.546875zm4.8840485 -4.328125q0.75 -0.890625 1.875 -0.890625q2.296875 0 2.328125 2.65625l0 4.515625l-1.890625 0l0 -4.453125q0 -0.609375 -0.265625 -0.890625q-0.25 -0.296875 -0.859375 -0.296875q-0.828125 0 -1.1875 0.640625l0 5.0l-1.890625 0l0 -10.0l1.890625 0l0 3.71875zm8.286148 -3.1875l2.4375 6.859375l2.421875 -6.859375l2.5625 0l0 9.46875l-1.953125 0l0 -2.59375l0.1875 -4.46875l-2.546875 7.0625l-1.34375 0l-2.546875 -7.046875l0.1875 4.453125l0 2.59375l-1.953125 0l0 -9.46875l2.546875 0zm13.081375 9.46875q-0.125 -0.25 -0.1875 -0.625q-0.671875 0.75 -1.765625 0.75q-1.046875 0 -1.734375 -0.59375q-0.671875 -0.59375 -0.671875 -1.515625q0 -1.109375 0.828125 -1.703125q0.84375 -0.609375 2.40625 -0.609375l0.859375 0l0 -0.40625q0 -0.484375 -0.25 -0.78125q-0.25 -0.296875 -0.78125 -0.296875q-0.484375 0 -0.75 0.234375q-0.265625 0.21875 -0.265625 0.625l-1.890625 0q0 -0.609375 0.375 -1.125q0.390625 -0.53125 1.078125 -0.828125q0.6875 -0.296875 1.546875 -0.296875q1.296875 0 2.0625 0.65625q0.765625 0.65625 0.765625 1.84375l0 3.046875q0.015625 1.0 0.28125 1.515625l0 0.109375l-1.90625 0zm-1.546875 -1.3125q0.40625 0 0.75 -0.171875q0.359375 -0.1875 0.53125 -0.5l0 -1.21875l-0.703125 0q-1.40625 0 -1.5 0.984375l0 0.109375q0 0.34375 0.234375 0.578125q0.25 0.21875 0.6875 0.21875zm10.958145 -2.140625q0 1.625 -0.75 2.609375q-0.734375 0.96875 -1.984375 0.96875q-1.0625 0 -1.71875 -0.734375l0 3.3125l-1.890625 0l0 -9.75l1.75 0l0.0625 0.6875q0.6875 -0.8125 1.78125 -0.8125q1.296875 0 2.015625 0.96875q0.734375 0.953125 0.734375 2.65625l0 0.09375zm-1.875 -0.140625q0 -0.984375 -0.359375 -1.515625q-0.34375 -0.53125 -1.015625 -0.53125q-0.875 0 -1.203125 0.671875l0 2.890625q0.34375 0.6875 1.21875 0.6875q1.359375 0 1.359375 -2.203125z" fill-rule="nonzero"/><path fill="#d9ead3" d="m122.400116 323.42117l85.291336 0l0 28.251953l-85.291336 0z" fill-rule="evenodd"/><path stroke="#134f5c" stroke-width="2.0" stroke-linejoin="round" stroke-linecap="butt" d="m122.400116 323.42117l85.291336 0l0 28.251953l-85.291336 0z" fill-rule="evenodd"/><path fill="#134f5c" d="m141.90211 342.34714l-1.953125 0l0 -4.0625l-3.8125 0l0 4.0625l-1.953125 0l0 -9.46875l1.953125 0l0 3.828125l3.8125 0l0 -3.828125l1.953125 0l0 9.46875zm5.6512756 0q-0.125 -0.25 -0.1875 -0.625q-0.671875 0.75 -1.765625 0.75q-1.046875 0 -1.734375 -0.59375q-0.671875 -0.59375 -0.671875 -1.515625q0 -1.109375 0.828125 -1.703125q0.84375 -0.609375 2.40625 -0.609375l0.859375 0l0 -0.40625q0 -0.484375 -0.25 -0.78125q-0.25 -0.296875 -0.78125 -0.296875q-0.484375 0 -0.75 0.234375q-0.265625 0.21875 -0.265625 0.625l-1.890625 0q0 -0.609375 0.375 -1.125q0.390625 -0.53125 1.078125 -0.828125q0.6875 -0.296875 1.546875 -0.296875q1.296875 0 2.0625 0.65625q0.765625 0.65625 0.765625 1.84375l0 3.046875q0.015625 1.0 0.28125 1.515625l0 0.109375l-1.90625 0zm-1.546875 -1.3125q0.40625 0 0.75 -0.171875q0.359375 -0.1875 0.53125 -0.5l0 -1.21875l-0.703125 0q-1.40625 0 -1.5 0.984375l0 0.109375q0 0.34375 0.234375 0.578125q0.25 0.21875 0.6875 0.21875zm8.426895 -0.640625q0 -0.34375 -0.34375 -0.53125q-0.328125 -0.203125 -1.09375 -0.359375q-2.515625 -0.53125 -2.515625 -2.140625q0 -0.9375 0.78125 -1.5625q0.78125 -0.625 2.03125 -0.625q1.34375 0 2.140625 0.640625q0.8125 0.625 0.8125 1.625l-1.875 0q0 -0.390625 -0.265625 -0.65625q-0.265625 -0.265625 -0.8125 -0.265625q-0.46875 0 -0.734375 0.21875q-0.265625 0.203125 -0.265625 0.546875q0 0.3125 0.296875 0.5q0.296875 0.1875 1.0 0.328125q0.703125 0.140625 1.1875 0.3125q1.484375 0.546875 1.484375 1.890625q0 0.96875 -0.828125 1.5625q-0.8125 0.59375 -2.125 0.59375q-0.890625 0 -1.578125 -0.3125q-0.6875 -0.3125 -1.078125 -0.859375q-0.390625 -0.546875 -0.390625 -1.1875l1.78125 0q0.03125 0.5 0.375 0.765625q0.34375 0.265625 0.921875 0.265625q0.546875 0 0.8125 -0.203125q0.28125 -0.203125 0.28125 -0.546875zm4.8840485 -4.328125q0.75 -0.890625 1.875 -0.890625q2.296875 0 2.328125 2.65625l0 4.515625l-1.890625 0l0 -4.453125q0 -0.609375 -0.265625 -0.890625q-0.25 -0.296875 -0.859375 -0.296875q-0.828125 0 -1.1875 0.640625l0 5.0l-1.890625 0l0 -10.0l1.890625 0l0 3.71875zm12.879898 -1.609375l-2.90625 0l0 7.890625l-1.953125 0l0 -7.890625l-2.859375 0l0 -1.578125l7.71875 0l0 1.578125zm3.9642334 7.890625q-0.125 -0.25 -0.1875 -0.625q-0.671875 0.75 -1.765625 0.75q-1.046875 0 -1.734375 -0.59375q-0.671875 -0.59375 -0.671875 -1.515625q0 -1.109375 0.828125 -1.703125q0.84375 -0.609375 2.40625 -0.609375l0.859375 0l0 -0.40625q0 -0.484375 -0.25 -0.78125q-0.25 -0.296875 -0.78125 -0.296875q-0.484375 0 -0.75 0.234375q-0.265625 0.21875 -0.265625 0.625l-1.890625 0q0 -0.609375 0.375 -1.125q0.390625 -0.53125 1.078125 -0.828125q0.6875 -0.296875 1.546875 -0.296875q1.296875 0 2.0625 0.65625q0.765625 0.65625 0.765625 1.84375l0 3.046875q0.015625 1.0 0.28125 1.515625l0 0.109375l-1.90625 0zm-1.546875 -1.3125q0.40625 0 0.75 -0.171875q0.359375 -0.1875 0.53125 -0.5l0 -1.21875l-0.703125 0q-1.40625 0 -1.5 0.984375l0 0.109375q0 0.34375 0.234375 0.578125q0.25 0.21875 0.6875 0.21875zm10.958145 -2.140625q0 1.6875 -0.71875 2.640625q-0.71875 0.9375 -2.015625 0.9375q-1.140625 0 -1.828125 -0.875l-0.078125 0.75l-1.703125 0l0 -10.0l1.890625 0l0 3.59375q0.640625 -0.765625 1.703125 -0.765625q1.296875 0 2.015625 0.953125q0.734375 0.9375 0.734375 2.65625l0 0.109375zm-1.875 -0.140625q0 -1.0625 -0.34375 -1.546875q-0.328125 -0.5 -1.0 -0.5q-0.90625 0 -1.234375 0.734375l0 2.78125q0.34375 0.734375 1.25 0.734375q0.90625 0 1.1875 -0.890625q0.140625 -0.4375 0.140625 -1.3125zm5.019211 3.59375l-1.890625 0l0 -10.0l1.890625 0l0 10.0zm4.799408 0.125q-1.546875 0 -2.53125 -0.9375q-0.96875 -0.953125 -0.96875 -2.53125l0 -0.1875q0 -1.0625 0.40625 -1.890625q0.40625 -0.84375 1.15625 -1.296875q0.765625 -0.453125 1.71875 -0.453125q1.453125 0 2.28125 0.921875q0.828125 0.90625 0.828125 2.578125l0 0.765625l-4.484375 0q0.09375 0.6875 0.546875 1.109375q0.46875 0.40625 1.171875 0.40625q1.078125 0 1.6875 -0.78125l0.921875 1.03125q-0.421875 0.59375 -1.140625 0.9375q-0.71875 0.328125 -1.59375 0.328125zm-0.21875 -5.78125q-0.5625 0 -0.90625 0.390625q-0.34375 0.375 -0.453125 1.078125l2.625 0l0 -0.15625q-0.015625 -0.625 -0.34375 -0.96875q-0.328125 -0.34375 -0.921875 -0.34375z" fill-rule="nonzero"/><path fill="#000000" fill-opacity="0.0" d="m64.68177 49.8299l0 165.88977l57.732285 0" fill-rule="evenodd"/><path stroke="#999999" stroke-width="2.0" stroke-miterlimit="8.0" stroke-linecap="butt" stroke-dasharray="8.0,6.0" d="m64.68177 58.8299l0 156.88976l57.732285 0" fill-rule="evenodd"/><path fill="#999999" stroke="#999999" stroke-width="2.0" stroke-linecap="butt" d="m66.893326 58.8299l-2.2115555 -6.076195l-2.2115555 6.076195z" fill-rule="evenodd"/><path fill="#000000" fill-opacity="0.0" d="m64.68177 49.8299l0 226.80316l57.732285 0" fill-rule="evenodd"/><path stroke="#999999" stroke-width="2.0" stroke-miterlimit="8.0" stroke-linecap="butt" stroke-dasharray="8.0,6.0" d="m64.68177 58.8299l0 217.80313l57.732285 0" fill-rule="evenodd"/><path fill="#999999" stroke="#999999" stroke-width="2.0" stroke-linecap="butt" d="m66.893326 58.8299l-2.2115555 -6.076195l-2.2115555 6.076195z" fill-rule="evenodd"/><path fill="#000000" fill-opacity="0.0" d="m64.68177 49.8299l0 287.71655l57.732285 0" fill-rule="evenodd"/><path stroke="#999999" stroke-width="2.0" stroke-miterlimit="8.0" stroke-linecap="butt" stroke-dasharray="8.0,6.0" d="m64.68177 58.8299l0 278.71652l57.732285 0" fill-rule="evenodd"/><path fill="#999999" stroke="#999999" stroke-width="2.0" stroke-linecap="butt" d="m66.893326 58.8299l-2.2115555 -6.076195l-2.2115555 6.076195z" fill-rule="evenodd"/><path fill="#000000" fill-opacity="0.0" d="m305.0589 143.16002l0 29.211426l0.06298828 0l0 29.21376" fill-rule="evenodd"/><path stroke="#999999" stroke-width="2.0" stroke-miterlimit="8.0" stroke-linecap="butt" stroke-dasharray="8.0,6.0" d="m305.0589 152.16002l0 20.211441l0.0630188 0l0 29.213745" fill-rule="evenodd"/><path fill="#999999" stroke="#999999" stroke-width="2.0" stroke-linecap="butt" d="m307.27048 152.16002l-2.2115784 -6.0762024l-2.2115479 6.0762024z" fill-rule="evenodd"/></g></svg>